REM DIRINDEX 1\2,1\3
REM DIRNAME cjc039,folder01,folder02
TITLE ""
FILE "3201-3220.mp3" MP3
  TRACK 01 AUDIO
    TITLE "0:"
    INDEX 01 00:00:00
  TRACK 02 AUDIO
    TITLE "2:cjc039_5401"
    INDEX 01 00:00:25
  TRACK 03 AUDIO
    TITLE "0:"
    INDEX 01 00:01:26
  TRACK 04 AUDIO
    TITLE "3:cjc039_5402"
    INDEX 01 00:02:06
  TRACK 05 AUDIO
    TITLE "0:"
    INDEX 01 00:05:14
  TRACK 06 AUDIO
    TITLE "2:cjc039_5403"
    INDEX 01 00:06:63
  TRACK 07 AUDIO
    TITLE "0:"
    INDEX 01 00:08:30
  TRACK 08 AUDIO
    TITLE "3:cjc039_5404"
    INDEX 01 00:09:06
  TRACK 09 AUDIO
    TITLE "0:"
    INDEX 01 00:12:48
  TRACK 10 AUDIO
    TITLE "2:cjc039_5405"
    INDEX 01 00:14:25
  TRACK 11 AUDIO
    TITLE "0:"
    INDEX 01 00:15:27
  TRACK 12 AUDIO
    TITLE "3:cjc039_5406"
    INDEX 01 00:16:08
  TRACK 13 AUDIO
    TITLE "0:"
    INDEX 01 00:20:51
  TRACK 14 AUDIO
    TITLE "2:cjc039_5407"
    INDEX 01 00:22:27
  TRACK 15 AUDIO
    TITLE "0:"
    INDEX 01 00:23:40
  TRACK 16 AUDIO
    TITLE "3:cjc039_5408"
    INDEX 01 00:24:16
  TRACK 17 AUDIO
    TITLE "0:"
    INDEX 01 00:27:36
  TRACK 18 AUDIO
    TITLE "2:cjc039_5409"
    INDEX 01 00:29:13
  TRACK 19 AUDIO
    TITLE "0:"
    INDEX 01 00:30:12
  TRACK 20 AUDIO
    TITLE "3:cjc039_5410"
    INDEX 01 00:30:69
  TRACK 21 AUDIO
    TITLE "0:"
    INDEX 01 00:34:24
  TRACK 22 AUDIO
    TITLE "2:cjc039_5411"
    INDEX 01 00:35:74
  TRACK 23 AUDIO
    TITLE "0:"
    INDEX 01 00:37:20
  TRACK 24 AUDIO
    TITLE "3:cjc039_5412"
    INDEX 01 00:37:73
  TRACK 25 AUDIO
    TITLE "0:"
    INDEX 01 00:42:61
  TRACK 26 AUDIO
    TITLE "2:cjc039_5413"
    INDEX 01 00:44:36
  TRACK 27 AUDIO
    TITLE "0:"
    INDEX 01 00:45:37
  TRACK 28 AUDIO
    TITLE "3:cjc039_5414"
    INDEX 01 00:46:15
  TRACK 29 AUDIO
    TITLE "0:"
    INDEX 01 00:50:11
  TRACK 30 AUDIO
    TITLE "2:cjc039_5415"
    INDEX 01 00:51:67
  TRACK 31 AUDIO
    TITLE "0:"
    INDEX 01 00:53:49
  TRACK 32 AUDIO
    TITLE "3:cjc039_5416"
    INDEX 01 00:54:25
  TRACK 33 AUDIO
    TITLE "0:"
    INDEX 01 00:57:66
  TRACK 34 AUDIO
    TITLE "2:cjc039_5417"
    INDEX 01 00:59:41
  TRACK 35 AUDIO
    TITLE "0:"
    INDEX 01 01:00:57
  TRACK 36 AUDIO
    TITLE "3:cjc039_5418"
    INDEX 01 01:01:36
  TRACK 37 AUDIO
    TITLE "0:"
    INDEX 01 01:05:46
  TRACK 38 AUDIO
    TITLE "2:cjc039_5419"
    INDEX 01 01:07:19
  TRACK 39 AUDIO
    TITLE "0:"
    INDEX 01 01:08:50
  TRACK 40 AUDIO
    TITLE "3:cjc039_5420"
    INDEX 01 01:09:28
  TRACK 41 AUDIO
    TITLE "0:"
    INDEX 01 01:13:30
  TRACK 42 AUDIO
    TITLE "2:cjc039_5421"
    INDEX 01 01:15:07
  TRACK 43 AUDIO
    TITLE "0:"
    INDEX 01 01:16:07
  TRACK 44 AUDIO
    TITLE "3:cjc039_5422"
    INDEX 01 01:16:61
  TRACK 45 AUDIO
    TITLE "0:"
    INDEX 01 01:19:66
  TRACK 46 AUDIO
    TITLE "2:cjc039_5423"
    INDEX 01 01:21:51
  TRACK 47 AUDIO
    TITLE "0:"
    INDEX 01 01:23:24
  TRACK 48 AUDIO
    TITLE "3:cjc039_5424"
    INDEX 01 01:24:00
  TRACK 49 AUDIO
    TITLE "0:"
    INDEX 01 01:28:72
  TRACK 50 AUDIO
    TITLE "2:cjc039_5425"
    INDEX 01 01:30:46
  TRACK 51 AUDIO
    TITLE "0:"
    INDEX 01 01:31:43
  TRACK 52 AUDIO
    TITLE "3:cjc039_5426"
    INDEX 01 01:32:27
  TRACK 53 AUDIO
    TITLE "0:"
    INDEX 01 01:36:72
  TRACK 54 AUDIO
    TITLE "2:cjc039_5427"
    INDEX 01 01:38:49
  TRACK 55 AUDIO
    TITLE "0:"
    INDEX 01 01:40:03
  TRACK 56 AUDIO
    TITLE "3:cjc039_5428"
    INDEX 01 01:40:54
  TRACK 57 AUDIO
    TITLE "0:"
    INDEX 01 01:44:24
  TRACK 58 AUDIO
    TITLE "2:cjc039_5429"
    INDEX 01 01:46:00
  TRACK 59 AUDIO
    TITLE "0:"
    INDEX 01 01:46:63
  TRACK 60 AUDIO
    TITLE "3:cjc039_5430"
    INDEX 01 01:47:42
  TRACK 61 AUDIO
    TITLE "0:"
    INDEX 01 01:50:60
  TRACK 62 AUDIO
    TITLE "2:cjc039_5431"
    INDEX 01 01:52:38
  TRACK 63 AUDIO
    TITLE "0:"
    INDEX 01 01:53:55
  TRACK 64 AUDIO
    TITLE "3:cjc039_5432"
    INDEX 01 01:54:42
  TRACK 65 AUDIO
    TITLE "0:"
    INDEX 01 01:58:19
  TRACK 66 AUDIO
    TITLE "2:cjc039_5433"
    INDEX 01 01:59:71
  TRACK 67 AUDIO
    TITLE "0:"
    INDEX 01 02:01:21
  TRACK 68 AUDIO
    TITLE "3:cjc039_5434"
    INDEX 01 02:01:74
  TRACK 69 AUDIO
    TITLE "0:"
    INDEX 01 02:07:00
  TRACK 70 AUDIO
    TITLE "2:cjc039_5435"
    INDEX 01 02:08:50
  TRACK 71 AUDIO
    TITLE "0:"
    INDEX 01 02:10:00
  TRACK 72 AUDIO
    TITLE "3:cjc039_5436"
    INDEX 01 02:10:55
  TRACK 73 AUDIO
    TITLE "0:"
    INDEX 01 02:15:56
  TRACK 74 AUDIO
    TITLE "2:cjc039_5437"
    INDEX 01 02:17:32
  TRACK 75 AUDIO
    TITLE "0:"
    INDEX 01 02:18:49
  TRACK 76 AUDIO
    TITLE "3:cjc039_5438"
    INDEX 01 02:19:27
  TRACK 77 AUDIO
    TITLE "0:"
    INDEX 01 02:23:03
  TRACK 78 AUDIO
    TITLE "2:cjc039_5439"
    INDEX 01 02:24:59
  TRACK 79 AUDIO
    TITLE "0:"
    INDEX 01 02:26:27
  TRACK 80 AUDIO
    TITLE "3:cjc039_5440"
    INDEX 01 02:27:07
  TRACK 81 AUDIO
    TITLE "0:"
    INDEX 01 02:31:08
